<svg id="Calendar" xmlns="http://www.w3.org/2000/svg" xmlns:xlink="http://www.w3.org/1999/xlink" width="412" height="120" viewBox="0 0 412 120">
  <defs>
    <clipPath id="clip-path">
      <rect id="Open_Mask" data-name="Open Mask" width="412" height="120" transform="translate(9 168)" fill="#23036a"/>
    </clipPath>
    <clipPath id="clip-path-2">
      <rect id="Mask_Days" data-name="Mask Days" width="400" height="370" rx="33" transform="translate(-87.827 -55.682)" fill="#fff" stroke="#707070" stroke-width="1"/>
    </clipPath>
    <filter id="Su" x="44" y="130" width="48" height="52" filterUnits="userSpaceOnUse">
      <feOffset dy="3" input="SourceAlpha"/>
      <feGaussianBlur stdDeviation="3" result="blur"/>
      <feFlood flood-opacity="0.161"/>
      <feComposite operator="in" in2="blur"/>
      <feComposite in="SourceGraphic"/>
    </filter>
    <filter id="Mo" x="87" y="130" width="54" height="52" filterUnits="userSpaceOnUse">
      <feOffset dy="3" input="SourceAlpha"/>
      <feGaussianBlur stdDeviation="3" result="blur-2"/>
      <feFlood flood-opacity="0.161"/>
      <feComposite operator="in" in2="blur-2"/>
      <feComposite in="SourceGraphic"/>
    </filter>
    <filter id="Tu" x="137" y="130" width="46" height="52" filterUnits="userSpaceOnUse">
      <feOffset dy="3" input="SourceAlpha"/>
      <feGaussianBlur stdDeviation="3" result="blur-3"/>
      <feFlood flood-opacity="0.161"/>
      <feComposite operator="in" in2="blur-3"/>
      <feComposite in="SourceGraphic"/>
    </filter>
    <filter id="We" x="177" y="130" width="58" height="52" filterUnits="userSpaceOnUse">
      <feOffset dy="3" input="SourceAlpha"/>
      <feGaussianBlur stdDeviation="3" result="blur-4"/>
      <feFlood flood-opacity="0.161"/>
      <feComposite operator="in" in2="blur-4"/>
      <feComposite in="SourceGraphic"/>
    </filter>
    <filter id="Th" x="228" y="130" width="48" height="52" filterUnits="userSpaceOnUse">
      <feOffset dy="3" input="SourceAlpha"/>
      <feGaussianBlur stdDeviation="3" result="blur-5"/>
      <feFlood flood-opacity="0.161"/>
      <feComposite operator="in" in2="blur-5"/>
      <feComposite in="SourceGraphic"/>
    </filter>
    <filter id="Fr" x="277" y="130" width="43" height="52" filterUnits="userSpaceOnUse">
      <feOffset dy="3" input="SourceAlpha"/>
      <feGaussianBlur stdDeviation="3" result="blur-6"/>
      <feFlood flood-opacity="0.161"/>
      <feComposite operator="in" in2="blur-6"/>
      <feComposite in="SourceGraphic"/>
    </filter>
    <filter id="Sa" x="320" y="130" width="48" height="52" filterUnits="userSpaceOnUse">
      <feOffset dy="3" input="SourceAlpha"/>
      <feGaussianBlur stdDeviation="3" result="blur-7"/>
      <feFlood flood-opacity="0.161"/>
      <feComposite operator="in" in2="blur-7"/>
      <feComposite in="SourceGraphic"/>
    </filter>
    <clipPath id="clip-path-3">
      <path id="Mask" d="M24,0H176a24,24,0,0,1,0,48H24A24,24,0,0,1,24,0Z" transform="translate(170 207)" fill="#fff" stroke="#707070" stroke-width="1"/>
    </clipPath>
  </defs>
  <g id="Open_Calendar" data-name="Open Calendar" transform="translate(-9 -168)">
    <g id="Mask_Group_6" data-name="Mask Group 6" clip-path="url(#clip-path)">
      <g id="Days" transform="translate(101.827 345.682)">
        <g id="Days_Background" data-name="Days Background" transform="translate(-87.827 -55.682)" fill="#fff" stroke="#707070" stroke-width="1">
          <rect width="400" height="370" rx="33" stroke="none"/>
          <rect x="0.5" y="0.5" width="399" height="369" rx="32.5" fill="none"/>
        </g>
        <g id="Mask_Days-2" data-name="Mask Days" clip-path="url(#clip-path-2)">
          <g id="March" transform="translate(350)" opacity="0">
            <text id="_5" data-name="5" transform="translate(252.173 33.318)" fill="rgba(0,0,0,0.87)" font-size="20" font-family="Nunito-ExtraBold, Nunito" font-weight="800"><tspan x="-6" y="0">5</tspan></text>
            <text id="_6" data-name="6" transform="translate(-24.827 80.318)" fill="rgba(0,0,0,0.87)" font-size="20" font-family="Nunito-ExtraBold, Nunito" font-weight="800"><tspan x="-6" y="0">6</tspan></text>
            <text id="_7" data-name="7" transform="translate(21.173 80.318)" fill="rgba(0,0,0,0.87)" font-size="20" font-family="Nunito-ExtraBold, Nunito" font-weight="800"><tspan x="-6" y="0">7</tspan></text>
            <text id="_8" data-name="8" transform="translate(68.173 80.318)" fill="rgba(0,0,0,0.87)" font-size="20" font-family="Nunito-ExtraBold, Nunito" font-weight="800"><tspan x="-6" y="0">8</tspan></text>
            <text id="_9" data-name="9" transform="translate(113.173 80.318)" fill="rgba(0,0,0,0.87)" font-size="20" font-family="Nunito-ExtraBold, Nunito" font-weight="800"><tspan x="-6" y="0">9</tspan></text>
            <text id="_10" data-name="10" transform="translate(159.173 80.318)" fill="rgba(0,0,0,0.87)" font-size="20" font-family="Nunito-ExtraBold, Nunito" font-weight="800"><tspan x="-12" y="0">10</tspan></text>
            <text id="_11" data-name="11" transform="translate(205.173 80.318)" fill="rgba(0,0,0,0.87)" font-size="20" font-family="Nunito-ExtraBold, Nunito" font-weight="800"><tspan x="-12" y="0">11</tspan></text>
            <text id="_8-2" data-name="8" transform="translate(252.173 80.318)" fill="rgba(0,0,0,0.87)" font-size="20" font-family="Nunito-ExtraBold, Nunito" font-weight="800"><tspan x="-12.01" y="0">12</tspan></text>
            <text id="_13" data-name="13" transform="translate(-24.827 127.318)" fill="rgba(0,0,0,0.87)" font-size="20" font-family="Nunito-ExtraBold, Nunito" font-weight="800"><tspan x="-12" y="0">13</tspan></text>
            <text id="_14" data-name="14" transform="translate(21.173 127.318)" fill="rgba(0,0,0,0.87)" font-size="20" font-family="Nunito-ExtraBold, Nunito" font-weight="800"><tspan x="-12" y="0">14</tspan></text>
            <text id="_15" data-name="15" transform="translate(68.173 127.318)" fill="rgba(0,0,0,0.87)" font-size="20" font-family="Nunito-ExtraBold, Nunito" font-weight="800"><tspan x="-12" y="0">15</tspan></text>
            <text id="_16" data-name="16" transform="translate(113.173 127.318)" fill="rgba(0,0,0,0.87)" font-size="20" font-family="Nunito-ExtraBold, Nunito" font-weight="800"><tspan x="-12" y="0">16</tspan></text>
            <text id="_17" data-name="17" transform="translate(159.173 127.318)" fill="rgba(0,0,0,0.87)" font-size="20" font-family="Nunito-ExtraBold, Nunito" font-weight="800"><tspan x="-12" y="0">17</tspan></text>
            <text id="_18" data-name="18" transform="translate(205.173 127.318)" fill="rgba(0,0,0,0.87)" font-size="20" font-family="Nunito-ExtraBold, Nunito" font-weight="800"><tspan x="-12" y="0">18</tspan></text>
            <text id="_19" data-name="19" transform="translate(250.173 127.318)" fill="rgba(0,0,0,0.87)" font-size="20" font-family="Nunito-ExtraBold, Nunito" font-weight="800"><tspan x="-12" y="0">19</tspan></text>
            <text id="_20" data-name="20" transform="translate(-24.827 174.318)" fill="rgba(0,0,0,0.87)" font-size="20" font-family="Nunito-ExtraBold, Nunito" font-weight="800" opacity="0.8"><tspan x="-12.01" y="0">20</tspan></text>
            <text id="_21" data-name="21" transform="translate(21.173 174.318)" fill="rgba(0,0,0,0.87)" font-size="20" font-family="Nunito-ExtraBold, Nunito" font-weight="800"><tspan x="-12.01" y="0">21</tspan></text>
            <text id="_22" data-name="22" transform="translate(68.173 174.318)" fill="rgba(0,0,0,0.87)" font-size="20" font-family="Nunito-ExtraBold, Nunito" font-weight="800"><tspan x="-12.02" y="0">22</tspan></text>
            <text id="_23" data-name="23" transform="translate(113.173 174.318)" fill="rgba(0,0,0,0.87)" font-size="20" font-family="Nunito-ExtraBold, Nunito" font-weight="800"><tspan x="-12.01" y="0">23</tspan></text>
            <text id="_24" data-name="24" transform="translate(159.173 174.318)" fill="rgba(0,0,0,0.87)" font-size="20" font-family="Nunito-ExtraBold, Nunito" font-weight="800"><tspan x="-12.01" y="0">24</tspan></text>
            <text id="_25" data-name="25" transform="translate(205.173 174.318)" fill="rgba(0,0,0,0.87)" font-size="20" font-family="Nunito-ExtraBold, Nunito" font-weight="800"><tspan x="-12.01" y="0">25</tspan></text>
            <text id="_26" data-name="26" transform="translate(250.173 174.318)" fill="rgba(0,0,0,0.87)" font-size="20" font-family="Nunito-ExtraBold, Nunito" font-weight="800"><tspan x="-12.01" y="0">26</tspan></text>
            <text id="_27" data-name="27" transform="translate(-24.827 221.318)" fill="rgba(0,0,0,0.87)" font-size="20" font-family="Nunito-ExtraBold, Nunito" font-weight="800"><tspan x="-12.01" y="0">27</tspan></text>
            <text id="_28" data-name="28" transform="translate(21.173 221.318)" fill="rgba(0,0,0,0.87)" font-size="20" font-family="Nunito-ExtraBold, Nunito" font-weight="800"><tspan x="-12.01" y="0">28</tspan></text>
            <text id="_29" data-name="29" transform="translate(68.173 221.318)" fill="rgba(0,0,0,0.87)" font-size="20" font-family="Nunito-ExtraBold, Nunito" font-weight="800"><tspan x="-12.01" y="0">29</tspan></text>
            <text id="_30" data-name="30" transform="translate(113.173 221.318)" fill="rgba(0,0,0,0.87)" font-size="20" font-family="Nunito-ExtraBold, Nunito" font-weight="800"><tspan x="-12" y="0">30</tspan></text>
            <text id="_31" data-name="31" transform="translate(159.173 221.318)" fill="rgba(0,0,0,0.87)" font-size="20" font-family="Nunito-ExtraBold, Nunito" font-weight="800"><tspan x="-12" y="0">31</tspan></text>
            <text id="_1" data-name="1" transform="translate(205.173 221.318)" fill="rgba(0,0,0,0.87)" font-size="20" font-family="Nunito-ExtraBold, Nunito" font-weight="800" opacity="0.4"><tspan x="-6" y="0">1</tspan></text>
            <text id="_2" data-name="2" transform="translate(250.173 221.318)" fill="rgba(0,0,0,0.87)" font-size="20" font-family="Nunito-ExtraBold, Nunito" font-weight="800" opacity="0.4"><tspan x="-6.01" y="0">2</tspan></text>
            <text id="_27-2" data-name="27" transform="translate(-22.827 33.318)" fill="rgba(0,0,0,0.87)" font-size="20" font-family="Nunito-ExtraBold, Nunito" font-weight="800" opacity="0.4"><tspan x="-12.01" y="0">27</tspan></text>
            <text id="_28-2" data-name="28" transform="translate(23.173 33.318)" fill="rgba(0,0,0,0.87)" font-size="20" font-family="Nunito-ExtraBold, Nunito" font-weight="800" opacity="0.4"><tspan x="-12.01" y="0">28</tspan></text>
            <text id="_1-2" data-name="1" transform="translate(69.173 33.318)" fill="rgba(0,0,0,0.87)" font-size="20" font-family="Nunito-ExtraBold, Nunito" font-weight="800"><tspan x="-6" y="0">1</tspan></text>
            <text id="_2-2" data-name="2" transform="translate(114.173 33.318)" fill="rgba(0,0,0,0.87)" font-size="20" font-family="Nunito-ExtraBold, Nunito" font-weight="800"><tspan x="-6.01" y="0">2</tspan></text>
            <text id="_3" data-name="3" transform="translate(160.173 33.318)" fill="rgba(0,0,0,0.87)" font-size="20" font-family="Nunito-ExtraBold, Nunito" font-weight="800"><tspan x="-6" y="0">3</tspan></text>
            <text id="_4" data-name="4" transform="translate(206.173 33.318)" fill="rgba(0,0,0,0.87)" font-size="20" font-family="Nunito-ExtraBold, Nunito" font-weight="800"><tspan x="-6" y="0">4</tspan></text>
            <text id="_30-2" data-name="30" transform="translate(-24.826 268.318)" fill="rgba(0,0,0,0.87)" font-size="20" font-family="Nunito-ExtraBold, Nunito" font-weight="800"><tspan x="-12" y="0">30</tspan></text>
            <text id="_31-2" data-name="31" transform="translate(21.173 268.318)" fill="rgba(0,0,0,0.87)" font-size="20" font-family="Nunito-ExtraBold, Nunito" font-weight="800"><tspan x="-12" y="0">31</tspan></text>
            <text id="_1-3" data-name="1" transform="translate(69.173 268.318)" fill="rgba(0,0,0,0.87)" font-size="20" font-family="Nunito-ExtraBold, Nunito" font-weight="800" opacity="0.4"><tspan x="-6" y="0">1</tspan></text>
            <text id="_2-3" data-name="2" transform="translate(111.173 268.318)" fill="rgba(0,0,0,0.87)" font-size="20" font-family="Nunito-ExtraBold, Nunito" font-weight="800" opacity="0.4"><tspan x="-6.01" y="0">2</tspan></text>
            <text id="_3-2" data-name="3" transform="translate(157.173 268.318)" fill="rgba(0,0,0,0.87)" font-size="20" font-family="Nunito-ExtraBold, Nunito" font-weight="800" opacity="0.4"><tspan x="-6" y="0">3</tspan></text>
            <text id="_4-2" data-name="4" transform="translate(204.173 268.318)" fill="rgba(0,0,0,0.87)" font-size="20" font-family="Nunito-ExtraBold, Nunito" font-weight="800" opacity="0.4"><tspan x="-6" y="0">4</tspan></text>
            <text id="_5-2" data-name="5" transform="translate(249.173 268.318)" fill="rgba(0,0,0,0.87)" font-size="20" font-family="Nunito-ExtraBold, Nunito" font-weight="800" opacity="0.4"><tspan x="-6" y="0">5</tspan></text>
          </g>
          <g id="February" transform="translate(349)" opacity="0">
            <text id="_1-4" data-name="1" transform="translate(68.173 33.318)" fill="rgba(0,0,0,0.87)" font-size="20" font-family="Nunito-ExtraBold, Nunito" font-weight="800"><tspan x="-6" y="0">1</tspan></text>
            <text id="_2-4" data-name="2" transform="translate(118.173 33.318)" fill="rgba(0,0,0,0.87)" font-size="20" font-family="Nunito-ExtraBold, Nunito" font-weight="800"><tspan x="-6.01" y="0">2</tspan></text>
            <text id="_3-3" data-name="3" transform="translate(164.173 33.318)" fill="rgba(0,0,0,0.87)" font-size="20" font-family="Nunito-ExtraBold, Nunito" font-weight="800"><tspan x="-6" y="0">3</tspan></text>
            <text id="_4-3" data-name="4" transform="translate(211.173 33.318)" fill="rgba(0,0,0,0.87)" font-size="20" font-family="Nunito-ExtraBold, Nunito" font-weight="800"><tspan x="-6" y="0">4</tspan></text>
            <text id="_5-3" data-name="5" transform="translate(256.173 33.318)" fill="rgba(0,0,0,0.87)" font-size="20" font-family="Nunito-ExtraBold, Nunito" font-weight="800"><tspan x="-6" y="0">5</tspan></text>
            <text id="_6-2" data-name="6" transform="translate(-23.827 80.318)" fill="rgba(0,0,0,0.87)" font-size="20" font-family="Nunito-ExtraBold, Nunito" font-weight="800"><tspan x="-6" y="0">6</tspan></text>
            <text id="_7-2" data-name="7" transform="translate(22.173 80.318)" fill="rgba(0,0,0,0.87)" font-size="20" font-family="Nunito-ExtraBold, Nunito" font-weight="800"><tspan x="-6" y="0">7</tspan></text>
            <text id="_8-3" data-name="8" transform="translate(69.173 80.318)" fill="rgba(0,0,0,0.87)" font-size="20" font-family="Nunito-ExtraBold, Nunito" font-weight="800"><tspan x="-6" y="0">8</tspan></text>
            <text id="_9-2" data-name="9" transform="translate(116.173 80.318)" fill="rgba(0,0,0,0.87)" font-size="20" font-family="Nunito-ExtraBold, Nunito" font-weight="800"><tspan x="-6" y="0">9</tspan></text>
            <text id="_10-2" data-name="10" transform="translate(162.173 80.318)" fill="rgba(0,0,0,0.87)" font-size="20" font-family="Nunito-ExtraBold, Nunito" font-weight="800"><tspan x="-12" y="0">10</tspan></text>
            <text id="_11-2" data-name="11" transform="translate(209.173 80.318)" fill="rgba(0,0,0,0.87)" font-size="20" font-family="Nunito-ExtraBold, Nunito" font-weight="800"><tspan x="-12" y="0">11</tspan></text>
            <text id="_12" data-name="12" transform="translate(254.173 80.318)" fill="rgba(0,0,0,0.87)" font-size="20" font-family="Nunito-ExtraBold, Nunito" font-weight="800"><tspan x="-12.01" y="0">12</tspan></text>
            <text id="_13-2" data-name="13" transform="translate(-23.827 125.318)" fill="rgba(0,0,0,0.87)" font-size="20" font-family="Nunito-ExtraBold, Nunito" font-weight="800"><tspan x="-12" y="0">13</tspan></text>
            <text id="_14-2" data-name="14" transform="translate(22.173 125.318)" fill="rgba(0,0,0,0.87)" font-size="20" font-family="Nunito-ExtraBold, Nunito" font-weight="800"><tspan x="-12" y="0">14</tspan></text>
            <text id="_15-2" data-name="15" transform="translate(67.173 125.318)" fill="rgba(0,0,0,0.87)" font-size="20" font-family="Nunito-ExtraBold, Nunito" font-weight="800"><tspan x="-12" y="0">15</tspan></text>
            <text id="_16-2" data-name="16" transform="translate(113.173 126.318)" fill="rgba(0,0,0,0.87)" font-size="20" font-family="Nunito-ExtraBold, Nunito" font-weight="800" opacity="0.8"><tspan x="-12" y="0">16</tspan></text>
            <text id="_17-2" data-name="17" transform="translate(159.173 126.318)" fill="rgba(0,0,0,0.87)" font-size="20" font-family="Nunito-ExtraBold, Nunito" font-weight="800"><tspan x="-12" y="0">17</tspan></text>
            <text id="_18-2" data-name="18" transform="translate(206.173 126.318)" fill="rgba(0,0,0,0.87)" font-size="20" font-family="Nunito-ExtraBold, Nunito" font-weight="800"><tspan x="-12" y="0">18</tspan></text>
            <text id="_19-2" data-name="19" transform="translate(251.173 126.318)" fill="rgba(0,0,0,0.87)" font-size="20" font-family="Nunito-ExtraBold, Nunito" font-weight="800"><tspan x="-12" y="0">19</tspan></text>
            <text id="_20-2" data-name="20" transform="translate(-23.827 172.318)" fill="rgba(0,0,0,0.87)" font-size="20" font-family="Nunito-ExtraBold, Nunito" font-weight="800"><tspan x="-12.01" y="0">20</tspan></text>
            <text id="_21-2" data-name="21" transform="translate(22.173 172.318)" fill="rgba(0,0,0,0.87)" font-size="20" font-family="Nunito-ExtraBold, Nunito" font-weight="800"><tspan x="-12.01" y="0">21</tspan></text>
            <text id="_22-2" data-name="22" transform="translate(67.173 172.318)" fill="rgba(0,0,0,0.87)" font-size="20" font-family="Nunito-ExtraBold, Nunito" font-weight="800"><tspan x="-12.02" y="0">22</tspan></text>
            <text id="_23-2" data-name="23" transform="translate(113.173 172.318)" fill="rgba(0,0,0,0.87)" font-size="20" font-family="Nunito-ExtraBold, Nunito" font-weight="800"><tspan x="-12.01" y="0">23</tspan></text>
            <text id="_24-2" data-name="24" transform="translate(159.173 172.318)" fill="rgba(0,0,0,0.87)" font-size="20" font-family="Nunito-ExtraBold, Nunito" font-weight="800"><tspan x="-12.01" y="0">24</tspan></text>
            <text id="_25-2" data-name="25" transform="translate(206.173 172.318)" fill="rgba(0,0,0,0.87)" font-size="20" font-family="Nunito-ExtraBold, Nunito" font-weight="800"><tspan x="-12.01" y="0">25</tspan></text>
            <text id="_26-2" data-name="26" transform="translate(251.173 172.318)" fill="rgba(0,0,0,0.87)" font-size="20" font-family="Nunito-ExtraBold, Nunito" font-weight="800"><tspan x="-12.01" y="0">26</tspan></text>
            <text id="_27-3" data-name="27" transform="translate(-22.827 219.318)" fill="rgba(0,0,0,0.87)" font-size="20" font-family="Nunito-ExtraBold, Nunito" font-weight="800"><tspan x="-12.01" y="0">27</tspan></text>
            <text id="_28-3" data-name="28" transform="translate(23.173 219.318)" fill="rgba(0,0,0,0.87)" font-size="20" font-family="Nunito-ExtraBold, Nunito" font-weight="800"><tspan x="-12.01" y="0">28</tspan></text>
            <text id="_1-5" data-name="1" transform="translate(68.173 219.318)" fill="rgba(0,0,0,0.87)" font-size="20" font-family="Nunito-ExtraBold, Nunito" font-weight="800" opacity="0.4"><tspan x="-6" y="0">1</tspan></text>
            <text id="_30-3" data-name="30" transform="translate(-22.826 33.318)" fill="rgba(0,0,0,0.87)" font-size="20" font-family="Nunito-ExtraBold, Nunito" font-weight="800" opacity="0.4"><tspan x="-12" y="0">30</tspan></text>
            <text id="_31-3" data-name="31" transform="translate(23.173 33.318)" fill="rgba(0,0,0,0.87)" font-size="20" font-family="Nunito-ExtraBold, Nunito" font-weight="800" opacity="0.4"><tspan x="-12" y="0">31</tspan></text>
            <text id="_2-5" data-name="2" transform="translate(118.173 219.318)" fill="rgba(0,0,0,0.87)" font-size="20" font-family="Nunito-ExtraBold, Nunito" font-weight="800" opacity="0.4"><tspan x="-6.01" y="0">2</tspan></text>
            <text id="_3-4" data-name="3" transform="translate(160.173 219.318)" fill="rgba(0,0,0,0.87)" font-size="20" font-family="Nunito-ExtraBold, Nunito" font-weight="800" opacity="0.4"><tspan x="-6" y="0">3</tspan></text>
            <text id="_4-4" data-name="4" transform="translate(206.173 219.318)" fill="rgba(0,0,0,0.87)" font-size="20" font-family="Nunito-ExtraBold, Nunito" font-weight="800" opacity="0.4"><tspan x="-6" y="0">4</tspan></text>
            <text id="_5-4" data-name="5" transform="translate(253.173 219.318)" fill="rgba(0,0,0,0.87)" font-size="20" font-family="Nunito-ExtraBold, Nunito" font-weight="800" opacity="0.4"><tspan x="-6" y="0">5</tspan></text>
          </g>
          <g id="January" transform="translate(-1)">
            <text id="_1-6" data-name="1" transform="translate(252.173 33.318)" fill="rgba(0,0,0,0.87)" font-size="20" font-family="Nunito-ExtraBold, Nunito" font-weight="800"><tspan x="-6" y="0">1</tspan></text>
            <text id="_2-6" data-name="2" transform="translate(-24.827 80.318)" fill="rgba(0,0,0,0.87)" font-size="20" font-family="Nunito-ExtraBold, Nunito" font-weight="800"><tspan x="-6.01" y="0">2</tspan></text>
            <text id="_3-5" data-name="3" transform="translate(21.173 80.318)" fill="rgba(0,0,0,0.87)" font-size="20" font-family="Nunito-ExtraBold, Nunito" font-weight="800"><tspan x="-6" y="0">3</tspan></text>
            <text id="_4-5" data-name="4" transform="translate(68.173 80.318)" fill="rgba(0,0,0,0.87)" font-size="20" font-family="Nunito-ExtraBold, Nunito" font-weight="800"><tspan x="-6" y="0">4</tspan></text>
            <text id="_5-5" data-name="5" transform="translate(113.173 80.318)" fill="rgba(0,0,0,0.87)" font-size="20" font-family="Nunito-ExtraBold, Nunito" font-weight="800"><tspan x="-6" y="0">5</tspan></text>
            <text id="_6-3" data-name="6" transform="translate(159.173 80.318)" fill="rgba(0,0,0,0.87)" font-size="20" font-family="Nunito-ExtraBold, Nunito" font-weight="800"><tspan x="-6" y="0">6</tspan></text>
            <text id="_7-3" data-name="7" transform="translate(205.173 80.318)" fill="rgba(0,0,0,0.87)" font-size="20" font-family="Nunito-ExtraBold, Nunito" font-weight="800"><tspan x="-6" y="0">7</tspan></text>
            <text id="_8-4" data-name="8" transform="translate(252.173 80.318)" fill="rgba(0,0,0,0.87)" font-size="20" font-family="Nunito-ExtraBold, Nunito" font-weight="800"><tspan x="-6" y="0">8</tspan></text>
            <text id="_9-3" data-name="9" transform="translate(-24.827 127.318)" fill="rgba(0,0,0,0.87)" font-size="20" font-family="Nunito-ExtraBold, Nunito" font-weight="800"><tspan x="-6" y="0">9</tspan></text>
            <text id="_10-3" data-name="10" transform="translate(21.173 127.318)" fill="rgba(0,0,0,0.87)" font-size="20" font-family="Nunito-ExtraBold, Nunito" font-weight="800"><tspan x="-12" y="0">10</tspan></text>
            <text id="_11-3" data-name="11" transform="translate(68.173 127.318)" fill="rgba(0,0,0,0.87)" font-size="20" font-family="Nunito-ExtraBold, Nunito" font-weight="800"><tspan x="-12" y="0">11</tspan></text>
            <text id="_12-2" data-name="12" transform="translate(113.173 127.318)" fill="rgba(0,0,0,0.87)" font-size="20" font-family="Nunito-ExtraBold, Nunito" font-weight="800"><tspan x="-12.01" y="0">12</tspan></text>
            <text id="_13-3" data-name="13" transform="translate(159.173 127.318)" fill="rgba(0,0,0,0.87)" font-size="20" font-family="Nunito-ExtraBold, Nunito" font-weight="800"><tspan x="-12" y="0">13</tspan></text>
            <text id="_14-3" data-name="14" transform="translate(205.173 127.318)" fill="rgba(0,0,0,0.87)" font-size="20" font-family="Nunito-ExtraBold, Nunito" font-weight="800"><tspan x="-12" y="0">14</tspan></text>
            <text id="_15-3" data-name="15" transform="translate(250.173 127.318)" fill="rgba(0,0,0,0.87)" font-size="20" font-family="Nunito-ExtraBold, Nunito" font-weight="800"><tspan x="-12" y="0">15</tspan></text>
            <text id="_16-3" data-name="16" transform="translate(-24.827 174.318)" fill="rgba(0,0,0,0.87)" font-size="20" font-family="Nunito-ExtraBold, Nunito" font-weight="800" opacity="0.8"><tspan x="-12" y="0">16</tspan></text>
            <text id="_17-3" data-name="17" transform="translate(21.173 174.318)" fill="rgba(0,0,0,0.87)" font-size="20" font-family="Nunito-ExtraBold, Nunito" font-weight="800"><tspan x="-12" y="0">17</tspan></text>
            <text id="_18-3" data-name="18" transform="translate(68.173 174.318)" fill="rgba(0,0,0,0.87)" font-size="20" font-family="Nunito-ExtraBold, Nunito" font-weight="800"><tspan x="-12" y="0">18</tspan></text>
            <text id="_19-3" data-name="19" transform="translate(113.173 174.318)" fill="rgba(0,0,0,0.87)" font-size="20" font-family="Nunito-ExtraBold, Nunito" font-weight="800"><tspan x="-12" y="0">19</tspan></text>
            <text id="_20-3" data-name="20" transform="translate(159.173 174.318)" fill="rgba(0,0,0,0.87)" font-size="20" font-family="Nunito-ExtraBold, Nunito" font-weight="800"><tspan x="-12.01" y="0">20</tspan></text>
            <text id="_21-3" data-name="21" transform="translate(205.173 174.318)" fill="rgba(0,0,0,0.87)" font-size="20" font-family="Nunito-ExtraBold, Nunito" font-weight="800"><tspan x="-12.01" y="0">21</tspan></text>
            <text id="_22-3" data-name="22" transform="translate(250.173 174.318)" fill="rgba(0,0,0,0.87)" font-size="20" font-family="Nunito-ExtraBold, Nunito" font-weight="800"><tspan x="-12.02" y="0">22</tspan></text>
            <text id="_23-3" data-name="23" transform="translate(-24.827 221.318)" fill="rgba(0,0,0,0.87)" font-size="20" font-family="Nunito-ExtraBold, Nunito" font-weight="800"><tspan x="-12.01" y="0">23</tspan></text>
            <text id="_24-3" data-name="24" transform="translate(21.173 221.318)" fill="rgba(0,0,0,0.87)" font-size="20" font-family="Nunito-ExtraBold, Nunito" font-weight="800"><tspan x="-12.01" y="0">24</tspan></text>
            <text id="_25-3" data-name="25" transform="translate(68.173 221.318)" fill="rgba(0,0,0,0.87)" font-size="20" font-family="Nunito-ExtraBold, Nunito" font-weight="800"><tspan x="-12.01" y="0">25</tspan></text>
            <text id="_26-3" data-name="26" transform="translate(113.173 221.318)" fill="rgba(0,0,0,0.87)" font-size="20" font-family="Nunito-ExtraBold, Nunito" font-weight="800"><tspan x="-12.01" y="0">26</tspan></text>
            <text id="_27-4" data-name="27" transform="translate(159.173 221.318)" fill="rgba(0,0,0,0.87)" font-size="20" font-family="Nunito-ExtraBold, Nunito" font-weight="800"><tspan x="-12.01" y="0">27</tspan></text>
            <text id="_28-4" data-name="28" transform="translate(205.173 221.318)" fill="rgba(0,0,0,0.87)" font-size="20" font-family="Nunito-ExtraBold, Nunito" font-weight="800"><tspan x="-12.01" y="0">28</tspan></text>
            <text id="_29-2" data-name="29" transform="translate(250.173 221.318)" fill="rgba(0,0,0,0.87)" font-size="20" font-family="Nunito-ExtraBold, Nunito" font-weight="800"><tspan x="-12.01" y="0">29</tspan></text>
            <text id="_26-4" data-name="26" transform="translate(-22.827 33.318)" fill="rgba(0,0,0,0.87)" font-size="20" font-family="Nunito-ExtraBold, Nunito" font-weight="800" opacity="0.4"><tspan x="-12.01" y="0">26</tspan></text>
            <text id="_27-5" data-name="27" transform="translate(23.173 33.318)" fill="rgba(0,0,0,0.87)" font-size="20" font-family="Nunito-ExtraBold, Nunito" font-weight="800" opacity="0.4"><tspan x="-12.01" y="0">27</tspan></text>
            <text id="_28-5" data-name="28" transform="translate(69.173 33.318)" fill="rgba(0,0,0,0.87)" font-size="20" font-family="Nunito-ExtraBold, Nunito" font-weight="800" opacity="0.4"><tspan x="-12.01" y="0">28</tspan></text>
            <text id="_29-3" data-name="29" transform="translate(114.173 33.318)" fill="rgba(0,0,0,0.87)" font-size="20" font-family="Nunito-ExtraBold, Nunito" font-weight="800" opacity="0.4"><tspan x="-12.01" y="0">29</tspan></text>
            <text id="_30-4" data-name="30" transform="translate(160.173 33.318)" fill="rgba(0,0,0,0.87)" font-size="20" font-family="Nunito-ExtraBold, Nunito" font-weight="800" opacity="0.4"><tspan x="-12" y="0">30</tspan></text>
            <text id="_31-4" data-name="31" transform="translate(206.173 33.318)" fill="rgba(0,0,0,0.87)" font-size="20" font-family="Nunito-ExtraBold, Nunito" font-weight="800" opacity="0.4"><tspan x="-12" y="0">31</tspan></text>
            <text id="_30-5" data-name="30" transform="translate(-24.826 268.318)" fill="rgba(0,0,0,0.87)" font-size="20" font-family="Nunito-ExtraBold, Nunito" font-weight="800"><tspan x="-12" y="0">30</tspan></text>
            <text id="_31-5" data-name="31" transform="translate(21.173 268.318)" fill="rgba(0,0,0,0.87)" font-size="20" font-family="Nunito-ExtraBold, Nunito" font-weight="800"><tspan x="-12" y="0">31</tspan></text>
            <text id="_1-7" data-name="1" transform="translate(69.173 268.318)" fill="rgba(0,0,0,0.87)" font-size="20" font-family="Nunito-ExtraBold, Nunito" font-weight="800" opacity="0.4"><tspan x="-6" y="0">1</tspan></text>
            <text id="_2-7" data-name="2" transform="translate(111.173 268.318)" fill="rgba(0,0,0,0.87)" font-size="20" font-family="Nunito-ExtraBold, Nunito" font-weight="800" opacity="0.4"><tspan x="-6.01" y="0">2</tspan></text>
            <text id="_3-6" data-name="3" transform="translate(157.173 268.318)" fill="rgba(0,0,0,0.87)" font-size="20" font-family="Nunito-ExtraBold, Nunito" font-weight="800" opacity="0.4"><tspan x="-6" y="0">3</tspan></text>
            <text id="_4-6" data-name="4" transform="translate(204.173 268.318)" fill="rgba(0,0,0,0.87)" font-size="20" font-family="Nunito-ExtraBold, Nunito" font-weight="800" opacity="0.4"><tspan x="-6" y="0">4</tspan></text>
            <text id="_5-6" data-name="5" transform="translate(249.173 268.318)" fill="rgba(0,0,0,0.87)" font-size="20" font-family="Nunito-ExtraBold, Nunito" font-weight="800" opacity="0.4"><tspan x="-6" y="0">5</tspan></text>
          </g>
        </g>
      </g>
      <g id="Week_Day_Names" data-name="Week Day Names">
        <g transform="matrix(1, 0, 0, 1, 9, 168)" filter="url(#Su)">
          <text id="Su-2" data-name="Su" transform="translate(68 161)" fill="rgba(0,0,0,0.87)" font-size="25" font-family="Nunito-SemiBoldItalic, Nunito" font-weight="600" font-style="italic"><tspan x="-14.95" y="0">Su</tspan></text>
        </g>
        <g transform="matrix(1, 0, 0, 1, 9, 168)" filter="url(#Mo)">
          <text id="Mo-2" data-name="Mo" transform="translate(114 161)" fill="rgba(0,0,0,0.87)" font-size="25" font-family="Nunito-SemiBoldItalic, Nunito" font-weight="600" font-style="italic"><tspan x="-17.563" y="0">Mo</tspan></text>
        </g>
        <g transform="matrix(1, 0, 0, 1, 9, 168)" filter="url(#Tu)">
          <text id="Tu-2" data-name="Tu" transform="translate(160 161)" fill="rgba(0,0,0,0.87)" font-size="25" font-family="Nunito-SemiBoldItalic, Nunito" font-weight="600" font-style="italic"><tspan x="-13.738" y="0">Tu</tspan></text>
        </g>
        <g transform="matrix(1, 0, 0, 1, 9, 168)" filter="url(#We)">
          <text id="We-2" data-name="We" transform="translate(206 161)" fill="rgba(0,0,0,0.87)" font-size="25" font-family="Nunito-SemiBoldItalic, Nunito" font-weight="600" font-style="italic"><tspan x="-19.713" y="0">We</tspan></text>
        </g>
        <g transform="matrix(1, 0, 0, 1, 9, 168)" filter="url(#Th)">
          <text id="Th-2" data-name="Th" transform="translate(252 161)" fill="rgba(0,0,0,0.87)" font-size="25" font-family="Nunito-SemiBoldItalic, Nunito" font-weight="600" font-style="italic"><tspan x="-14.763" y="0">Th</tspan></text>
        </g>
        <g transform="matrix(1, 0, 0, 1, 9, 168)" filter="url(#Fr)">
          <text id="Fr-2" data-name="Fr" transform="translate(298 161)" fill="rgba(0,0,0,0.87)" font-size="25" font-family="Nunito-SemiBoldItalic, Nunito" font-weight="600" font-style="italic"><tspan x="-11.463" y="0">Fr</tspan></text>
        </g>
        <g transform="matrix(1, 0, 0, 1, 9, 168)" filter="url(#Sa)">
          <text id="Sa-2" data-name="Sa" transform="translate(344 161)" fill="rgba(0,0,0,0.87)" font-size="25" font-family="Nunito-SemiBoldItalic, Nunito" font-weight="600" font-style="italic"><tspan x="-14.525" y="0">Sa</tspan></text>
        </g>
      </g>
      <g id="Month_background" data-name="Month background" transform="translate(14 181)" fill="#fff" stroke="#707070" stroke-linecap="round" stroke-width="1">
        <rect width="400" height="100" rx="33" stroke="none"/>
        <rect x="0.5" y="0.5" width="399" height="99" rx="32.5" fill="none"/>
      </g>
      <g id="Back" transform="translate(0 4)">
        <g id="Ellipse_26" data-name="Ellipse 26" transform="translate(26 207)" fill="#fff" stroke="#707070" stroke-width="1">
          <circle cx="20" cy="20" r="20" stroke="none"/>
          <circle cx="20" cy="20" r="19.5" fill="none"/>
        </g>
        <path id="Icon_ionic-ios-arrow-back" data-name="Icon ionic-ios-arrow-back" d="M15.772,19.309,25.7,9.389a1.875,1.875,0,0,0-2.656-2.648L11.8,17.981a1.871,1.871,0,0,0-.055,2.585L23.036,31.884a1.875,1.875,0,1,0,2.656-2.648Z" transform="translate(27.749 207.806)"/>
      </g>
      <g id="Forward" transform="translate(-12 4)">
        <g id="Ellipse_27" data-name="Ellipse 27" transform="translate(85 207)" fill="#fff" stroke="#707070" stroke-width="1">
          <circle cx="20" cy="20" r="20" stroke="none"/>
          <circle cx="20" cy="20" r="19.5" fill="none"/>
        </g>
        <path id="Icon_ionic-ios-arrow-forward" data-name="Icon ionic-ios-arrow-forward" d="M21.725,19.309,11.8,9.389a1.867,1.867,0,0,1,0-2.648,1.891,1.891,0,0,1,2.656,0L25.7,17.981a1.871,1.871,0,0,1,.055,2.585L14.461,31.884A1.875,1.875,0,1,1,11.8,29.236Z" transform="translate(86.753 207.804)"/>
      </g>
      <g id="Mask_Month" data-name="Mask Month" transform="translate(-19)" clip-path="url(#clip-path-3)">
        <g id="Background_Months" data-name="Background Months" transform="translate(170 207)" fill="#fff" stroke="#707070" stroke-width="1">
          <rect width="200.192" height="48" rx="24" stroke="none"/>
          <rect x="0.5" y="0.5" width="199.192" height="47" rx="23.5" fill="none"/>
        </g>
        <text id="January-2" data-name="January" transform="translate(233 218)" fill="rgba(0,0,0,0.87)" font-size="20" font-family="Nunito-ExtraBold, Nunito" font-weight="800"><tspan x="-36.18" y="20">January</tspan></text>
        <text id="March-2" data-name="March" transform="translate(103 218)" fill="rgba(0,0,0,0.87)" font-size="20" font-family="Nunito-ExtraBold, Nunito" font-weight="800"><tspan x="-28.68" y="20">March</tspan></text>
        <text id="February-2" data-name="February" transform="translate(363 218)" fill="rgba(0,0,0,0.87)" font-size="20" font-family="Nunito-ExtraBold, Nunito" font-weight="800"><tspan x="-42.09" y="20">February</tspan></text>
      </g>
      <g id="Days_Counter" data-name="Days Counter" transform="translate(-37 675)">
        <g id="Background_Months-2" data-name="Background Months" transform="translate(151 106)" fill="#fff" stroke="#707070" stroke-width="1">
          <rect width="200" height="48" rx="24" stroke="none"/>
          <rect x="0.5" y="0.5" width="199" height="47" rx="23.5" fill="none"/>
        </g>
        <text id="_0_Days" data-name="0 Days" transform="translate(251.403 136.5)" fill="rgba(0,0,0,0.87)" stroke="#707070" stroke-width="1" font-size="20" font-family="Nunito-ExtraBold, Nunito" font-weight="800"><tspan x="-32.04" y="0">0 Days</tspan></text>
      </g>
      <g id="Date_Selection" data-name="Date Selection" opacity="0">
        <rect id="Select_Range" data-name="Select Range" width="177" height="40" rx="20" transform="translate(102 397)" fill="rgba(1,135,134,0.38)" opacity="0"/>
        <g id="First_Select" data-name="First Select" opacity="0">
          <circle id="Select_Start" data-name="Select Start" cx="20" cy="20" r="20" transform="translate(102 397)" fill="rgba(3,218,197,0.65)"/>
          <text id="_3-7" data-name="3" transform="translate(122 426)" fill="rgba(0,0,0,0.87)" font-size="20" font-family="Nunito-ExtraBold, Nunito" font-weight="800"><tspan x="-6" y="0">3</tspan></text>
        </g>
        <text id="_4-7" data-name="4" transform="translate(169 426)" fill="rgba(0,0,0,0.87)" font-size="20" font-family="Nunito-ExtraBold, Nunito" font-weight="800" opacity="0"><tspan x="-6" y="0">4</tspan></text>
        <text id="_5-7" data-name="5" transform="translate(214 426)" fill="rgba(0,0,0,0.87)" font-size="20" font-family="Nunito-ExtraBold, Nunito" font-weight="800" opacity="0"><tspan x="-6" y="0">5</tspan></text>
        <g id="End_Select" data-name="End Select" opacity="0">
          <circle id="Select_End" data-name="Select End" cx="20" cy="20" r="20" transform="translate(239 397)" fill="rgba(3,218,197,0.65)"/>
          <text id="_6-4" data-name="6" transform="translate(260 426)" fill="rgba(0,0,0,0.87)" font-size="20" font-family="Nunito-ExtraBold, Nunito" font-weight="800"><tspan x="-6" y="0">6</tspan></text>
        </g>
        <g id="Background_days" data-name="Background days" transform="translate(114 781)" fill="#39d7c9" stroke="#707070" stroke-width="1" opacity="0">
          <rect width="200" height="48" rx="24" stroke="none"/>
          <rect x="0.5" y="0.5" width="199" height="47" rx="23.5" fill="none"/>
        </g>
        <text id="_4_Days" data-name="4 Days" transform="translate(183 812)" font-size="20" font-family="Nunito-ExtraBold, Nunito" font-weight="800" opacity="0"><tspan x="0" y="0">4 Days</tspan></text>
      </g>
    </g>
  </g>
  <g id="Collapsed_Calendar" data-name="Collapsed Calendar" transform="translate(-9 -658)">
    <g id="Background" transform="translate(14 671)" fill="#fff" stroke="#707070" stroke-linecap="round" stroke-width="1">
      <rect width="400" height="100" rx="33" stroke="none"/>
      <rect x="0.5" y="0.5" width="399" height="99" rx="32.5" fill="none"/>
    </g>
    <g id="Label_and_Icon" data-name="Label and Icon" transform="translate(326.375 700.625)">
      <text id="No_Dates_Selected" data-name="No Dates Selected" transform="translate(-111.875 26.875)" fill="rgba(0,0,0,0.87)" stroke="#707070" stroke-width="1" font-size="20" font-family="Nunito-ExtraBold, Nunito" font-weight="800"><tspan x="-86.3" y="0">No Dates Selected</tspan></text>
      <path id="Path_13" data-name="Path 13" d="M10.52,14.815a1.126,1.126,0,0,0,0,1.92l9.143,6.708a2.344,2.344,0,0,0,2.541.042l9.009-6.609a1.123,1.123,0,0,0,.01-1.92,2.335,2.335,0,0,0-2.608,0l-7.739,5.611-7.748-5.759A2.335,2.335,0,0,0,10.52,14.815Z" transform="translate(0 3.202)"/>
      <path id="Path_14" data-name="Path 14" d="M3.375,20.875a17.5,17.5,0,1,0,17.5-17.5A17.5,17.5,0,0,0,3.375,20.875ZM31.341,10.409A14.8,14.8,0,1,1,10.409,31.341,14.8,14.8,0,1,1,31.341,10.409Z"/>
    </g>
    <g id="Days_Capsule" data-name="Days Capsule" transform="translate(326.375 700.625)" opacity="0">
      <g id="Path_15" data-name="Path 15" transform="translate(-206.375 3.375)" fill="#70efde">
        <path d="M 141.5 34.5 L 17.5 34.5 C 12.95913982391357 34.5 8.690059661865234 32.7317008972168 5.479179859161377 29.52082061767578 C 2.26830005645752 26.30994033813477 0.5 22.04085922241211 0.5 17.5 C 0.5 12.95913982391357 2.26830005645752 8.690059661865234 5.479179859161377 5.479179859161377 C 8.690059661865234 2.26830005645752 12.95913982391357 0.5 17.5 0.5 L 141.5 0.5 C 146.0408630371094 0.5 150.3099365234375 2.26830005645752 153.5208129882812 5.479179859161377 C 156.7317047119141 8.690059661865234 158.5 12.95913982391357 158.5 17.5 C 158.5 22.04085922241211 156.7317047119141 26.30994033813477 153.5208129882812 29.52082061767578 C 150.3099365234375 32.7317008972168 146.0408630371094 34.5 141.5 34.5 Z" stroke="none"/>
        <path d="M 17.5 1 C 13.09268188476562 1 8.949188232421875 2.716293334960938 5.832748413085938 5.83275032043457 C 2.716293334960938 8.949188232421875 1 13.09268760681152 1 17.5 C 1 21.90731239318848 2.716293334960938 26.05081176757812 5.832748413085938 29.16724967956543 C 8.949188232421875 32.28370666503906 13.09268188476562 34 17.5 34 L 141.5 34 C 145.9073181152344 34 150.0508117675781 32.28370666503906 153.1672515869141 29.16724967956543 C 156.2837066650391 26.05081176757812 158 21.90731239318848 158 17.5 C 158 13.09268760681152 156.2837066650391 8.949188232421875 153.1672515869141 5.83275032043457 C 150.0508117675781 2.716293334960938 145.9073181152344 1 141.5 1 L 17.5 1 M 17.5 0 L 141.5 0 C 151.1649780273438 0 159 7.835020065307617 159 17.5 C 159 27.16497802734375 151.1649780273438 35 141.5 35 L 17.5 35 C 7.83502197265625 35 0 27.16497802734375 0 17.5 C 0 7.835020065307617 7.83502197265625 0 17.5 0 Z" stroke="none" fill="#707070"/>
      </g>
      <text id="_4_Days-2" data-name="4 Days" transform="translate(-158.375 27.375)" font-size="20" font-family="Nunito-ExtraBold, Nunito" font-weight="800"><tspan x="0" y="0">4 Days</tspan></text>
    </g>
  </g>
</svg>
