<svg xmlns="http://www.w3.org/2000/svg" xmlns:xlink="http://www.w3.org/1999/xlink" width="350" height="450" viewBox="0 0 350 450">
  <defs>
    <linearGradient id="linear-gradient" x1="0.5" x2="0.5" y2="1" gradientUnits="objectBoundingBox">
      <stop offset="0" stop-color="#fff"/>
      <stop offset="1" stop-color="gray" stop-opacity="0.541"/>
    </linearGradient>
    <filter id="Rectangle_8" x="0" y="0" width="350" height="111" filterUnits="userSpaceOnUse">
      <feOffset dy="3" input="SourceAlpha"/>
      <feGaussianBlur stdDeviation="3" result="blur"/>
      <feFlood flood-opacity="0.161"/>
      <feComposite operator="in" in2="blur"/>
      <feComposite in="SourceGraphic"/>
    </filter>
    <filter id="Rectangle_8-2" x="0" y="339" width="350" height="111" filterUnits="userSpaceOnUse">
      <feOffset dy="3" input="SourceAlpha"/>
      <feGaussianBlur stdDeviation="3" result="blur-2"/>
      <feFlood flood-opacity="0.161"/>
      <feComposite operator="in" in2="blur-2"/>
      <feComposite in="SourceGraphic"/>
    </filter>
  </defs>
  <g id="Group_352" data-name="Group 352" transform="translate(-39 -224)">
    <g transform="matrix(1, 0, 0, 1, 39, 224)" filter="url(#Rectangle_8)">
      <g id="Rectangle_8-3" data-name="Rectangle 8" transform="translate(9 6)" stroke="#707070" stroke-width="1" fill="url(#linear-gradient)">
        <rect width="332" height="93" rx="20" stroke="none"/>
        <rect x="0.5" y="0.5" width="331" height="92" rx="19.5" fill="none"/>
      </g>
    </g>
    <g id="Rectangle_8-4" data-name="Rectangle 8" transform="translate(48 343)" stroke="#707070" stroke-width="1" fill="url(#linear-gradient)">
      <rect width="332" height="93" rx="20" stroke="none"/>
      <rect x="0.5" y="0.5" width="331" height="92" rx="19.5" fill="none"/>
    </g>
    <g id="Rectangle_8-5" data-name="Rectangle 8" transform="translate(48 456)" stroke="#707070" stroke-width="1" fill="url(#linear-gradient)">
      <rect width="332" height="93" rx="20" stroke="none"/>
      <rect x="0.5" y="0.5" width="331" height="92" rx="19.5" fill="none"/>
    </g>
    <g transform="matrix(1, 0, 0, 1, 39, 224)" filter="url(#Rectangle_8-2)">
      <g id="Rectangle_8-6" data-name="Rectangle 8" transform="translate(9 345)" stroke="#707070" stroke-width="1" fill="url(#linear-gradient)">
        <rect width="332" height="93" rx="20" stroke="none"/>
        <rect x="0.5" y="0.5" width="331" height="92" rx="19.5" fill="none"/>
      </g>
    </g>
  </g>
</svg>
