<svg xmlns="http://www.w3.org/2000/svg" width="300" height="40" viewBox="0 0 300 40">
  <g id="Sign-in_Google" data-name="Sign-in Google" transform="translate(-210 -573)">
    <g id="Rectangle_7" data-name="Rectangle 7" transform="translate(210 573)" fill="#03dac5" stroke="#707070" stroke-linecap="round" stroke-linejoin="round" stroke-width="1">
      <rect width="300" height="40" stroke="none"/>
      <rect x="0.5" y="0.5" width="299" height="39" fill="none"/>
    </g>
    <g id="Group_351" data-name="Group 351" transform="translate(18 0.5)">
      <text id="Continue_with_Google" data-name="Continue with Google" transform="translate(360.5 599.5)" fill="rgba(0,0,0,0.74)" stroke="#707070" stroke-linecap="round" stroke-width="1" font-size="20" font-family="Nunito-Bold, Nunito" font-weight="700"><tspan x="-100.25" y="0">Continue with Google</tspan></text>
      <path id="Icon_ionic-logo-google" data-name="Icon ionic-logo-google" d="M28.509,14.16l-.129-.545H16.524v5.018h7.083a7.09,7.09,0,0,1-6.936,5.331,8.3,8.3,0,0,1-5.582-2.224,7.969,7.969,0,0,1-2.377-5.625A8.22,8.22,0,0,1,11.046,10.5a7.941,7.941,0,0,1,5.545-2.169,7.233,7.233,0,0,1,4.718,1.838l3.566-3.548a12.618,12.618,0,0,0-8.4-3.235h0A12.987,12.987,0,0,0,7.284,7.12a12.934,12.934,0,0,0-3.627,9,12.8,12.8,0,0,0,3.487,8.854,13.3,13.3,0,0,0,9.589,3.891,11.829,11.829,0,0,0,8.615-3.621,12.72,12.72,0,0,0,3.309-8.811A14.672,14.672,0,0,0,28.509,14.16Z" transform="translate(220.344 576.618)"/>
    </g>
  </g>
</svg>
